imdb : http://www.imdb.com/title/tt1194624/
Tagline: They are the crème de la crème. They can lock a target from 500m away.
Plot: A police sniper teams up with a hot-headed rookie to take down his former friend and teammate, who is exacting revenge on the police force.
Total Size : 1.19 GB

General
Complete name : Sun cheung sau 2009 DVDRip [H.264 - MP4 - AAC] ~ Mindbreaker.mp4
Format : H.264/AAC/MP4 - Anamophic
Source : DVD (sailo1)
File size : 1.19 GiB
Duration : 1h 26mn
Overall bit rate : 1 966 Kbps


Video
ID : 1
Format : AVC
Format/Info : Advanced Video Codec
Format profile : High@L3.0
Duration : 1h 26mn
Bit rate : 1800 Kbps
Width : 720 pixels
Height : 364 pixels
Display aspect ratio : 2.35:1
Frame rate : 25.000 fps
Bits/(Pixel*Frame) : 0.286
Stream size : 1.09 GiB (92%)
Writing library : x264 core 65

Audio
ID : 2
Format : AAC
Format/Info : Advanced Audio Codec
Format profile : LC
Duration : 1h 26mn
Bit rate : 160 Kbps
Channel(s) : 2 channels
Sampling rate : 48.0 KHz
Stream size : 99 MiB (8%)
Language : Chinese

Subtitle
Format : SubRip
Language : Dutch & English
Source : ondertitels.com & Subscene.org
 
http://genesis.1337x.org:1337/announce 
http://tracker.openbittorrent.com/announce
